<svg xmlns="http://www.w3.org/2000/svg" xmlns:xlink="http://www.w3.org/1999/xlink" width="196" height="39.878" viewBox="0 0 196 39.878">
  <defs>
    <linearGradient id="linear-gradient" x1="1.083" y1="0.404" x2="-0.248" y2="0.802" gradientUnits="objectBoundingBox">
      <stop offset="0" stop-color="#ed4b14"/>
      <stop offset="0.06" stop-color="#ed4b14"/>
      <stop offset="0.27" stop-color="#9f0c44"/>
      <stop offset="0.48" stop-color="#761b7a"/>
      <stop offset="0.652" stop-color="#47227d"/>
      <stop offset="1" stop-color="#002a72"/>
    </linearGradient>
  </defs>
  <g id="audiomind-logo-positivo" transform="translate(3147 -174)">
    <path id="Union_4" data-name="Union 4" d="M6.433,38.182V8.611a1.7,1.7,0,0,1,3.394,0v29.57a1.7,1.7,0,0,1-3.394,0Zm6.432-1.769V4.591a1.7,1.7,0,0,1,3.394,0V36.412a1.7,1.7,0,1,1-3.394,0ZM0,34.7V16.551a1.7,1.7,0,0,1,3.394,0V34.7A1.7,1.7,0,0,1,0,34.7Zm19.3-3.117V2.179a1.7,1.7,0,0,1,3.394,0V31.588a1.7,1.7,0,1,1-3.394,0Zm12.865-1.93V3.144a1.7,1.7,0,0,1,3.394,0V29.659a1.7,1.7,0,1,1-3.394,0Zm-6.433,0V1.7a1.7,1.7,0,0,1,3.394,0V29.659a1.7,1.7,0,1,1-3.394,0ZM38.6,28.534V6.682a1.7,1.7,0,0,1,3.394,0V28.534a1.7,1.7,0,0,1-3.394,0Zm6.432-3.859v-9.31a1.7,1.7,0,0,1,3.394,0v9.31a1.7,1.7,0,0,1-3.394,0Z" transform="translate(-3147 174)" fill="url(#linear-gradient)"/>
    <text id="audiomind" transform="translate(-3018 200)" fill="#042973" font-size="26" font-family="CeraPro-Black, Cera Pro" font-weight="800"><tspan x="-66.014" y="0">audiomind</tspan></text>
  </g>
</svg>
