<svg id="Group_45" data-name="Group 45" xmlns="http://www.w3.org/2000/svg" xmlns:xlink="http://www.w3.org/1999/xlink" width="146" height="46" viewBox="0 0 146 46">
  <defs>
    <linearGradient id="linear-gradient" x1="1.3" y1="0.124" x2="-0.28" y2="0.744" gradientUnits="objectBoundingBox">
      <stop offset="0" stop-color="#ed4b14"/>
      <stop offset="0.03" stop-color="#ed4b14"/>
      <stop offset="0.054" stop-color="#e94816"/>
      <stop offset="0.27" stop-color="#9f0c44"/>
      <stop offset="0.48" stop-color="#761b7a"/>
      <stop offset="0.652" stop-color="#47227d"/>
      <stop offset="1" stop-color="#002a72"/>
    </linearGradient>
  </defs>
  <g id="Group_4" data-name="Group 4">
    <rect id="Rectangle_10" data-name="Rectangle 10" width="146" height="46" rx="23" fill="url(#linear-gradient)"/>
    <path id="Path_36" data-name="Path 36" d="M.608-5.28A5.5,5.5,0,0,0,6.256.192,5.666,5.666,0,0,0,9.232-.592,5.593,5.593,0,0,0,11.3-2.672v-3.12H6.224V-3.92H9.136v.864A3.325,3.325,0,0,1,6.352-1.744,3.381,3.381,0,0,1,2.832-5.28,3.289,3.289,0,0,1,6.224-8.752,3.461,3.461,0,0,1,9.168-7.2L10.7-8.464a5.292,5.292,0,0,0-4.448-2.288A5.481,5.481,0,0,0,.608-5.28Zm17.28-2.64a2.341,2.341,0,0,0-.7-.1,2.746,2.746,0,0,0-2.176,1.04V-7.92H13.024V0h2.16V-3.952a1.912,1.912,0,0,1,2.128-2.064h.576ZM25.712-4.7A3.113,3.113,0,0,0,22.32-8.1a4.319,4.319,0,0,0-3.456,1.632l1.12,1.328a2.706,2.706,0,0,1,2.1-1.088,1.3,1.3,0,0,1,1.472,1.392v.352H21.568c-1.84,0-2.992.88-2.992,2.3,0,1.392,1.056,2.368,2.736,2.368a3.3,3.3,0,0,0,2.416-.96V0h1.984ZM23.552-2.96a1.574,1.574,0,0,1-1.664,1.568c-.688,0-1.136-.336-1.136-.864s.4-.8,1.1-.8h1.7Zm9.312-4.96-2,4.48-2-4.48H26.592L30.512.192h.72l3.92-8.112ZM42.736-4.7A3.113,3.113,0,0,0,39.344-8.1a4.319,4.319,0,0,0-3.456,1.632l1.12,1.328a2.706,2.706,0,0,1,2.1-1.088,1.3,1.3,0,0,1,1.472,1.392v.352H38.592c-1.84,0-2.992.88-2.992,2.3C35.6-.784,36.656.192,38.336.192a3.3,3.3,0,0,0,2.416-.96V0h1.984ZM40.576-2.96a1.574,1.574,0,0,1-1.664,1.568c-.688,0-1.136-.336-1.136-.864s.4-.8,1.1-.8h1.7Zm9.1-4.96a2.341,2.341,0,0,0-.7-.1A2.746,2.746,0,0,0,46.8-6.976V-7.92H44.816V0h2.16V-3.952A1.912,1.912,0,0,1,49.1-6.016h.576Z" transform="translate(61 28)" fill="#fff"/>
  </g>
  <g id="Group_12" data-name="Group 12" transform="translate(17 11)">
    <g id="Rectangle_20" data-name="Rectangle 20" transform="translate(4)" fill="#fff" stroke="#fff" stroke-linecap="round" stroke-linejoin="round" stroke-width="2">
      <rect width="8" height="15" rx="4" stroke="none"/>
      <rect x="1" y="1" width="6" height="13" rx="3" fill="none"/>
    </g>
    <path id="Path_15" data-name="Path 15" d="M-1068,1656v4a8.128,8.128,0,0,0,8,8,8.127,8.127,0,0,0,8-8v-4" transform="translate(1068 -1649)" fill="none" stroke="#fff" stroke-linecap="round" stroke-linejoin="round" stroke-width="2"/>
    <path id="Path_16" data-name="Path 16" d="M-1052,1680v4" transform="translate(1060 -1661)" fill="#fff" stroke="#fff" stroke-linecap="round" stroke-width="2"/>
    <line id="Line_1" data-name="Line 1" x2="8" transform="translate(4 23)" fill="none" stroke="#fff" stroke-linecap="round" stroke-width="2"/>
  </g>
</svg>
