<svg xmlns="http://www.w3.org/2000/svg" width="65" height="57" viewBox="0 0 65 57">
  <g id="Group_69" data-name="Group 69" transform="translate(1656 -571) rotate(90)">
    <path id="Polygon_3" data-name="Polygon 3" d="M27.288,9.142a6,6,0,0,1,10.425,0L59.884,48.028A6,6,0,0,1,54.672,57H10.328a6,6,0,0,1-5.212-8.972Z" transform="translate(628 1591) rotate(90)" fill="#e0dee3"/>
    <path id="Union_6" data-name="Union 6" d="M2.979,19.093V4.233a.786.786,0,0,1,1.571,0v14.86a.786.786,0,0,1-1.571,0Zm2.979-.882V2.228a.786.786,0,0,1,1.571,0V18.211a.786.786,0,0,1-1.571,0ZM0,17.359V8.19a.786.786,0,1,1,1.571,0v9.169a.786.786,0,1,1-1.571,0Zm8.937-1.553V1.026a.786.786,0,1,1,1.571,0v14.78a.786.786,0,1,1-1.571,0Zm5.957-.962V1.508a.786.786,0,0,1,1.572,0V14.844a.786.786,0,1,1-1.572,0Zm-2.979,0V.786a.786.786,0,0,1,1.572,0V14.844a.786.786,0,1,1-1.572,0Zm5.958-.561V3.271a.786.786,0,1,1,1.571,0V14.283a.786.786,0,1,1-1.571,0Zm2.979-1.923V7.6a.786.786,0,1,1,1.571,0V12.36a.786.786,0,1,1-1.571,0Z" transform="translate(579.5 1634.5) rotate(-90)" fill="#fff"/>
  </g>
</svg>
